<?xml version="1.0" encoding="utf-8"?>
<svg fill="#000000" width="50px" height="50px" viewBox="0 0 32 32" version="1.1" xmlns="http://www.w3.org/2000/svg">
<title>palm-tree</title>
<path d="M11.177 1.287c-1.75 0.007-3.372 0.363-4.163 0.61 0 0 7.174 1.217 7.771 6.17-5.451-7.86-11.397 1.646-11.397 1.646 1.24-0.325 4.79-1.291 7.16-0.883 1.622 0.279 3.203 1.749 3.135 1.73-3.865 0.951-10.006 18.153-8.963 19.55 0.93 1.068 1.861 0.704 2.79 0.162 0.46-3.646 4.052-19.641 8.447-18.35 0.001 0 0.001-0 0.002 0 0.37 0.127 0.72 0.349 0.739 0.688 0.036 0.647-0.381 1.703-0.283 2.437 0.229 1.703 0.562 2.296 1.047 2.89 1.158-0.651 2.267-2.999 2.496-4.216 1.038 0.455 2.706 1.507 4.068 5.417 0.712-3.664-0.315-6.554-3.683-7.837 1.459-0.631 7.809 2.56 8.584 4.339 0.754-3.207-4.58-7.131-9.020-6.922 0.851-0.222 1.787 0.037 2.677-0.618 1.195-0.88 2.588-1.637 3.886-2.451-4.366-1.899-8.395-0.961-8.679 1.004-0.223-4.363-3.608-5.379-6.612-5.366v0z"></path>
</svg>